<?xml version="1.0" encoding="UTF-8" standalone="no"?>
<!-- Created with Inkscape (http://www.inkscape.org/) -->

<svg
   xmlns:dc="http://purl.org/dc/elements/1.1/"
   xmlns:cc="http://creativecommons.org/ns#"
   xmlns:rdf="http://www.w3.org/1999/02/22-rdf-syntax-ns#"
   xmlns:svg="http://www.w3.org/2000/svg"
   xmlns="http://www.w3.org/2000/svg"
   xmlns:sodipodi="http://sodipodi.sourceforge.net/DTD/sodipodi-0.dtd"
   xmlns:inkscape="http://www.inkscape.org/namespaces/inkscape"
   inkscape:export-ydpi="96"
   inkscape:export-xdpi="96"
   sodipodi:docname="logo2.svg"
   inkscape:version="0.92.3 (2405546, 2018-03-11)"
   id="svg1388"
   version="1.1"
   viewBox="0 0 661.45831 158.75"
   height="600"
   width="2500">
  <defs
     id="defs1382" />
  <sodipodi:namedview
     inkscape:window-maximized="1"
     inkscape:window-y="-8"
     inkscape:window-x="-8"
     inkscape:window-height="1017"
     inkscape:window-width="1920"
     units="px"
     showgrid="false"
     inkscape:current-layer="g1080"
     inkscape:document-units="mm"
     inkscape:cy="259.70946"
     inkscape:cx="1325.6562"
     inkscape:zoom="0.49497474"
     inkscape:pageshadow="2"
     inkscape:pageopacity="0.0"
     borderopacity="1.0"
     bordercolor="#666666"
     pagecolor="#ffffff"
     id="base" />
  <metadata
     id="metadata1385">
    <rdf:RDF>
      <cc:Work
         rdf:about="">
        <dc:format>image/svg+xml</dc:format>
        <dc:type
           rdf:resource="http://purl.org/dc/dcmitype/StillImage" />
        <dc:title />
      </cc:Work>
    </rdf:RDF>
  </metadata>
  <g
     inkscape:groupmode="layer"
     id="layer3"
     inkscape:label="logo"
     style="display:inline">
    <g
       transform="translate(0,2.1)"
       id="g1080">
      <rect
         style="fill:#f65700;fill-opacity:1;stroke:none;stroke-width:0.05291667;stroke-miterlimit:4;stroke-dasharray:none;stroke-opacity:1"
         id="rect889"
         width="269.94223"
         height="26.192421"
         x="193.341"
         y="127.78489"
         ry="13.09621" />
      <path
         inkscape:connector-curvature="0"
         transform="translate(0,-138.24996)"
         style="display:inline;fill:#827edb;fill-opacity:1;stroke:none;stroke-width:0.05291667;stroke-miterlimit:4;stroke-dasharray:none;stroke-opacity:1"
         d="m 225.57548,195.97208 a 56.126598,56.126598 0 0 1 -56.1266,56.12659 56.126598,56.126598 0 0 1 -56.1266,-56.12659 56.126598,56.126598 0 0 1 56.1266,-56.1266 56.126598,56.126598 0 0 1 56.1266,56.1266 z"
         id="path832" />
      <path
         inkscape:connector-curvature="0"
         transform="translate(0,-138.24996)"
         style="display:inline;fill:#649f55;fill-opacity:1;stroke:none;stroke-width:0.05291667;stroke-miterlimit:4;stroke-dasharray:none;stroke-opacity:1"
         d="m 440.07521,195.97208 a 56.126598,56.126598 0 0 1 -56.1266,56.12659 56.126598,56.126598 0 0 1 -56.1266,-56.12659 56.126598,56.126598 0 0 1 56.1266,-56.1266 56.126598,56.126598 0 0 1 56.1266,56.1266 z"
         id="circle834" />
      <path
         inkscape:connector-curvature="0"
         transform="translate(0,-138.24996)"
         style="display:inline;fill:#c30056;fill-opacity:1;stroke:none;stroke-width:0.05291667;stroke-miterlimit:4;stroke-dasharray:none;stroke-opacity:1"
         d="m 651.67518,195.97208 a 56.126598,56.126598 0 0 1 -56.1266,56.12659 56.126598,56.126598 0 0 1 -56.12659,-56.12659 56.126598,56.126598 0 0 1 56.12659,-56.1266 56.126598,56.126598 0 0 1 56.1266,56.1266 z"
         id="circle836" />
      <path
         inkscape:connector-curvature="0"
         transform="translate(0,-138.24996)"
         style="display:inline;fill:#8f009e;fill-opacity:1;stroke:none;stroke-width:0.05291667;stroke-miterlimit:4;stroke-dasharray:none;stroke-opacity:1"
         d="M 117.6752,195.97208 A 56.126598,56.126598 0 0 1 61.548599,252.09867 56.126598,56.126598 0 0 1 5.4220009,195.97208 56.126598,56.126598 0 0 1 61.548599,139.84548 56.126598,56.126598 0 0 1 117.6752,195.97208 Z"
         id="circle844" />
      <path
         inkscape:connector-curvature="0"
         transform="translate(0,-138.24996)"
         style="display:inline;fill:#006cc8;fill-opacity:1;stroke:none;stroke-width:0.05291667;stroke-miterlimit:4;stroke-dasharray:none;stroke-opacity:1"
         d="m 331.37519,195.97208 a 56.126598,56.126598 0 0 1 -56.12659,56.12659 56.126598,56.126598 0 0 1 -56.1266,-56.12659 56.126598,56.126598 0 0 1 56.1266,-56.1266 56.126598,56.126598 0 0 1 56.12659,56.1266 z"
         id="circle846" />
      <path
         inkscape:connector-curvature="0"
         transform="translate(0,-138.24996)"
         style="display:inline;fill:#f1c943;fill-opacity:1;stroke:none;stroke-width:0.05291667;stroke-miterlimit:4;stroke-dasharray:none;stroke-opacity:1"
         d="m 545.4752,195.97208 a 56.126598,56.126598 0 0 1 -56.1266,56.12659 56.126598,56.126598 0 0 1 -56.1266,-56.12659 56.126598,56.126598 0 0 1 56.1266,-56.1266 56.126598,56.126598 0 0 1 56.1266,56.1266 z"
         id="circle848" />
      <path
         style="fill:#ffffff;fill-opacity:1;stroke:none;stroke-width:0.19968614px;stroke-linecap:butt;stroke-linejoin:miter;stroke-opacity:1"
         d="m 596.92077,31.374784 2.90235,8.74888 5.48741,-5.189533 13.15141,39.721103 -6.56112,0.0111 3.47108,10.370054 15.36794,0.03404 L 609.0921,19.8753 Z"
         id="path1319"
         inkscape:connector-curvature="0"
         sodipodi:nodetypes="ccccccccc" />
      <path
         style="fill:#ffffff;fill-opacity:1;stroke:none;stroke-width:0.19968614px;stroke-linecap:butt;stroke-linejoin:miter;stroke-opacity:1"
         d="m 581.88381,85.040964 -16.56912,0.003 -3.43148,-10.385473 7.74424,0.02596 -8.37088,-25.325617 31.09433,-29.467819 21.58931,65.145861 -16.63445,-0.0086 -3.4252,-10.37087 7.83137,-0.0053 -13.17279,-39.642378 -17.7146,16.744662 z"
         id="path1321"
         inkscape:connector-curvature="0"
         sodipodi:nodetypes="ccccccccccccc" />
      <path
         style="fill:#ffffff;fill-opacity:1;stroke:none;stroke-width:0.19968614px;stroke-linecap:butt;stroke-linejoin:miter;stroke-opacity:1"
         d="m 595.93421,85.041176 -12.83307,-0.01426 -3.45465,-10.354644 4.06257,-0.01426 -7.78005,-23.454479 13.02232,-12.324189 2.91696,8.785672 -6.3453,5.941535 z"
         id="path1323"
         inkscape:connector-curvature="0"
         sodipodi:nodetypes="ccccccccc" />
      <g
         id="g914"
         transform="translate(0.8,-1)"
         style="fill:#ffffff;fill-opacity:1;stroke:none;stroke-width:0;stroke-miterlimit:4;stroke-dasharray:none;stroke-opacity:1">
        <path
           inkscape:connector-curvature="0"
           id="path917"
           style="font-style:normal;font-variant:normal;font-weight:normal;font-stretch:normal;font-size:22.57777786px;line-height:112.75;font-family:'07YasashisaGothicBold';-inkscape-font-specification:'07YasashisaGothicBold';letter-spacing:0px;word-spacing:0px;fill:#ffffff;fill-opacity:1;stroke:none;stroke-width:0;stroke-miterlimit:4;stroke-dasharray:none;stroke-opacity:1"
           d="m 214.58454,138.87824 q 0,0.19844 -0.15434,0.30868 -0.15434,0.0882 -0.35278,0.0441 -1.6316,-0.46302 -3.26319,-0.46302 -2.02848,0 -2.02848,1.12448 0,0.50711 0.37483,0.90399 0.37483,0.39687 1.30087,0.55121 2.62378,0.55122 3.57187,1.41111 0.94809,0.88195 0.94809,2.57969 0,1.60955 -1.21267,2.51354 -1.23472,0.904 -3.57188,0.904 -2.07256,0 -3.96875,-0.59532 -0.22048,-0.0661 -0.22048,-0.30868 v -1.52135 q 0,-0.24254 0.15434,-0.33073 0.15434,-0.11024 0.37483,-0.0441 1.65364,0.59532 3.32934,0.59532 2.07257,0 2.07257,-1.21268 0,-0.59531 -0.39688,-0.92604 -0.19844,-0.19844 -0.57326,-0.35278 -0.37483,-0.15434 -0.88195,-0.26458 -1.19062,-0.26458 -2.02847,-0.61736 -0.83785,-0.35278 -1.34497,-0.8158 -0.99218,-0.92604 -0.99218,-2.33715 0,-1.6316 1.23472,-2.55764 1.16858,-0.904 3.54983,-0.904 1.89618,0 3.81441,0.46303 0.26458,0.0661 0.26458,0.30868 z" />
        <path
           inkscape:connector-curvature="0"
           id="path919"
           style="font-style:normal;font-variant:normal;font-weight:normal;font-stretch:normal;font-size:22.57777786px;line-height:112.75;font-family:'07YasashisaGothicBold';-inkscape-font-specification:'07YasashisaGothicBold';letter-spacing:0px;word-spacing:0px;fill:#ffffff;fill-opacity:1;stroke:none;stroke-width:0;stroke-miterlimit:4;stroke-dasharray:none;stroke-opacity:1"
           d="m 220.86839,138.15063 h 0.0441 q 1.5875,-1.5875 3.50573,-1.5875 2.07257,0 2.97656,1.19063 0.92604,1.19062 0.92604,4.01285 v 6.43819 q 0,0.33073 -0.33073,0.33073 h -2.271 q -0.33073,0 -0.33073,-0.33073 v -5.99722 q 0,-1.94028 -0.41893,-2.57969 -0.41892,-0.63941 -1.56545,-0.63941 -0.90399,0 -1.71979,0.8158 -0.8158,0.8158 -0.8158,1.74184 v 6.65868 q 0,0.33073 -0.33073,0.33073 h -2.33715 q -0.33073,0 -0.33073,-0.33073 v -16.27187 q 0,-0.33073 0.33073,-0.33073 h 2.33715 q 0.33073,0 0.33073,0.33073 z" />
        <path
           inkscape:connector-curvature="0"
           id="path921"
           style="font-style:normal;font-variant:normal;font-weight:normal;font-stretch:normal;font-size:22.57777786px;line-height:112.75;font-family:'07YasashisaGothicBold';-inkscape-font-specification:'07YasashisaGothicBold';letter-spacing:0px;word-spacing:0px;fill:#ffffff;fill-opacity:1;stroke:none;stroke-width:0;stroke-miterlimit:4;stroke-dasharray:none;stroke-opacity:1"
           d="m 232.00294,131.93293 q 0,-0.33073 0.35278,-0.33073 h 2.46944 q 0.35278,0 0.35278,0.33073 v 2.05052 q 0,0.33073 -0.35278,0.33073 h -2.46944 q -0.35278,0 -0.35278,-0.33073 z m 0,5.20347 q 0,-0.33073 0.35278,-0.33073 h 2.46944 q 0.35278,0 0.35278,0.33073 v 11.0684 q 0,0.33073 -0.35278,0.33073 h -2.46944 q -0.35278,0 -0.35278,-0.33073 z" />
        <path
           inkscape:connector-curvature="0"
           id="path923"
           style="font-style:normal;font-variant:normal;font-weight:normal;font-stretch:normal;font-size:22.57777786px;line-height:112.75;font-family:'07YasashisaGothicBold';-inkscape-font-specification:'07YasashisaGothicBold';letter-spacing:0px;word-spacing:0px;fill:#ffffff;fill-opacity:1;stroke:none;stroke-width:0;stroke-miterlimit:4;stroke-dasharray:none;stroke-opacity:1"
           d="m 241.4618,136.80567 q 0.13229,0 0.24253,0.0882 0.11025,0.0882 0.11025,0.22049 l 0.0441,1.10243 h 0.0441 q 1.30087,-1.65365 2.99861,-1.65365 1.01424,0 1.6757,0.39688 0.57326,0.35278 1.08038,1.36701 h 0.0441 q 1.43316,-1.76389 3.2191,-1.76389 1.85209,0 2.71198,1.01424 0.83785,0.99219 0.83785,3.50573 v 7.1217 q 0,0.33073 -0.33073,0.33073 h -2.29306 q -0.33073,0 -0.33073,-0.33073 v -6.65868 q 0,-1.65364 -0.30868,-2.18281 -0.33073,-0.50712 -1.23472,-0.50712 -0.59531,0 -1.16857,0.52917 -0.59532,0.55121 -0.59532,1.08038 v 7.73906 q 0,0.33073 -0.33073,0.33073 h -2.24895 q -0.35278,0 -0.35278,-0.33073 v -6.65868 q 0,-1.67569 -0.30868,-2.18281 -0.30868,-0.50712 -1.23473,-0.50712 -0.61736,0 -1.19062,0.52917 -0.57326,0.55121 -0.57326,1.08038 v 7.73906 q 0,0.33073 -0.35278,0.33073 h -2.31511 q -0.33073,0 -0.33073,-0.33073 v -11.0684 q 0,-0.33073 0.33073,-0.33073 z" />
        <path
           inkscape:connector-curvature="0"
           id="path925"
           style="font-style:normal;font-variant:normal;font-weight:normal;font-stretch:normal;font-size:22.57777786px;line-height:112.75;font-family:'07YasashisaGothicBold';-inkscape-font-specification:'07YasashisaGothicBold';letter-spacing:0px;word-spacing:0px;fill:#ffffff;fill-opacity:1;stroke:none;stroke-width:0;stroke-miterlimit:4;stroke-dasharray:none;stroke-opacity:1"
           d="m 263.02534,142.89109 q -3.24115,0 -3.24115,1.98437 0,0.74965 0.44097,1.16858 0.39688,0.46302 1.05834,0.46302 1.27882,0 2.07257,-0.8158 0.79375,-0.79375 0.79375,-2.18281 v -0.61736 z m -1.08038,-6.32796 q 2.93246,0 4.05694,1.03629 1.14653,1.08038 1.14653,3.63802 v 6.96736 q 0,0.33073 -0.33073,0.33073 h -2.13872 q -0.33073,0 -0.33073,-0.33073 l -0.0441,-1.30087 h -0.0441 q -1.38906,1.85209 -3.79236,1.85209 -1.52135,0 -2.53559,-1.01424 -1.01424,-1.01424 -1.01424,-2.60174 0,-1.96232 1.52136,-3.0427 1.47725,-1.08039 4.58611,-1.08039 h 1.12448 v -0.37482 q 0,-1.05834 -0.50712,-1.47726 -0.50712,-0.39687 -1.76389,-0.39687 -0.83785,0 -1.78594,0.15434 -0.94809,0.15434 -2.00642,0.46302 -0.19844,0.0661 -0.35278,-0.0441 -0.13229,-0.11024 -0.13229,-0.30868 v -1.56545 q 0,-0.22049 0.24253,-0.28663 2.05053,-0.61737 4.10105,-0.61737 z" />
        <path
           inkscape:connector-curvature="0"
           id="path927"
           style="font-style:normal;font-variant:normal;font-weight:normal;font-stretch:normal;font-size:22.57777786px;line-height:112.75;font-family:'07YasashisaGothicBold';-inkscape-font-specification:'07YasashisaGothicBold';letter-spacing:0px;word-spacing:0px;fill:#ffffff;fill-opacity:1;stroke:none;stroke-width:0;stroke-miterlimit:4;stroke-dasharray:none;stroke-opacity:1"
           d="m 272.4401,142.6706 q 0,1.94028 0.70555,2.86632 0.70556,0.97014 1.89618,0.97014 1.05833,0 1.83004,-0.70556 0.7717,-0.70555 0.7717,-1.60955 v -3.06475 q 0,-0.904 -0.7717,-1.60955 -0.77171,-0.68351 -1.83004,-0.68351 -2.60173,0 -2.60173,3.83646 z m 7.8052,-11.0684 q 0.35278,0 0.35278,0.33073 v 16.27187 q 0,0.33073 -0.35278,0.33073 h -2.11666 q -0.33073,0 -0.33073,-0.33073 l -0.0441,-1.14653 h -0.0441 q -0.8158,0.92605 -1.65364,1.30087 -0.8599,0.39688 -1.91823,0.39688 -2.02847,0 -3.35139,-1.65365 -1.32292,-1.6316 -1.32292,-4.43177 0,-2.91042 1.27882,-4.51997 1.25677,-1.5875 3.39549,-1.5875 1.91823,0 3.41753,1.43316 h 0.0441 v -6.06336 q 0,-0.33073 0.33073,-0.33073 z" />
        <path
           inkscape:connector-curvature="0"
           id="path929"
           style="font-style:normal;font-variant:normal;font-weight:normal;font-stretch:normal;font-size:22.57777786px;line-height:112.75;font-family:'07YasashisaGothicBold';-inkscape-font-specification:'07YasashisaGothicBold';letter-spacing:0px;word-spacing:0px;fill:#ffffff;fill-opacity:1;stroke:none;stroke-width:0;stroke-miterlimit:4;stroke-dasharray:none;stroke-opacity:1"
           d="m 289.39547,142.89109 q -3.24114,0 -3.24114,1.98437 0,0.74965 0.44097,1.16858 0.39688,0.46302 1.05833,0.46302 1.27882,0 2.07257,-0.8158 0.79375,-0.79375 0.79375,-2.18281 v -0.61736 z m -1.08038,-6.32796 q 2.93247,0 4.05695,1.03629 1.14652,1.08038 1.14652,3.63802 v 6.96736 q 0,0.33073 -0.33072,0.33073 h -2.13872 q -0.33073,0 -0.33073,-0.33073 l -0.0441,-1.30087 h -0.0441 q -1.38907,1.85209 -3.79236,1.85209 -1.52136,0 -2.53559,-1.01424 -1.01424,-1.01424 -1.01424,-2.60174 0,-1.96232 1.52135,-3.0427 1.47726,-1.08039 4.58611,-1.08039 h 1.12448 v -0.37482 q 0,-1.05834 -0.50711,-1.47726 -0.50712,-0.39687 -1.76389,-0.39687 -0.83785,0 -1.78594,0.15434 -0.94809,0.15434 -2.00642,0.46302 -0.19844,0.0661 -0.35278,-0.0441 -0.13229,-0.11024 -0.13229,-0.30868 v -1.56545 q 0,-0.22049 0.24253,-0.28663 2.05052,-0.61737 4.10104,-0.61737 z" />
        <path
           inkscape:connector-curvature="0"
           id="path931"
           style="font-style:normal;font-variant:normal;font-weight:normal;font-stretch:normal;font-size:22.57777786px;line-height:112.75;font-family:'07YasashisaGothicBold';-inkscape-font-specification:'07YasashisaGothicBold';letter-spacing:0px;word-spacing:0px;fill:#ffffff;fill-opacity:1;stroke:none;stroke-width:0;stroke-miterlimit:4;stroke-dasharray:none;stroke-opacity:1"
           d="m 297.17864,131.93293 q 0,-0.33073 0.35278,-0.33073 h 2.46944 q 0.35278,0 0.35278,0.33073 v 2.05052 q 0,0.33073 -0.35278,0.33073 h -2.46944 q -0.35278,0 -0.35278,-0.33073 z m 0,5.20347 q 0,-0.33073 0.35278,-0.33073 h 2.46944 q 0.35278,0 0.35278,0.33073 v 11.0684 q 0,0.33073 -0.35278,0.33073 h -2.46944 q -0.35278,0 -0.35278,-0.33073 z" />
        <path
           inkscape:connector-curvature="0"
           id="path933"
           style="font-style:normal;font-variant:normal;font-weight:normal;font-stretch:normal;font-size:22.57777786px;line-height:112.75;font-family:'07YasashisaGothicBold';-inkscape-font-specification:'07YasashisaGothicBold';letter-spacing:0px;word-spacing:0px;fill:#ffffff;fill-opacity:1;stroke:none;stroke-width:0;stroke-miterlimit:4;stroke-dasharray:none;stroke-opacity:1"
           d="m 308.97464,145.44873 2.75608,-8.42257 q 0.0661,-0.22049 0.28663,-0.22049 h 2.33715 q 0.22049,0 0.33073,0.15434 0.11024,0.15434 0.0221,0.37483 l -6.17361,15.96319 q -0.0661,0.19844 -0.26459,0.19844 h -2.29305 q -0.26458,0 -0.37483,-0.17639 -0.11024,-0.15434 0,-0.37483 l 1.87413,-4.40972 -4.05694,-11.22274 q -0.0661,-0.19844 0.0441,-0.35278 0.11024,-0.15434 0.33073,-0.15434 h 2.42534 q 0.24254,0 0.30868,0.22049 l 2.4033,8.42257 z" />
        <path
           inkscape:connector-curvature="0"
           id="path935"
           style="font-style:normal;font-variant:normal;font-weight:normal;font-stretch:normal;font-size:22.57777786px;line-height:112.75;font-family:'07YasashisaGothicBold';-inkscape-font-specification:'07YasashisaGothicBold';letter-spacing:0px;word-spacing:0px;fill:#ffffff;fill-opacity:1;stroke:none;stroke-width:0;stroke-miterlimit:4;stroke-dasharray:none;stroke-opacity:1"
           d="m 320.21943,138.15063 h 0.0441 q 1.5875,-1.5875 3.50573,-1.5875 2.07257,0 2.97656,1.19063 0.92604,1.19062 0.92604,4.01285 v 6.43819 q 0,0.33073 -0.33073,0.33073 h -2.271 q -0.33073,0 -0.33073,-0.33073 v -5.99722 q 0,-1.94028 -0.41893,-2.57969 -0.41892,-0.63941 -1.56545,-0.63941 -0.90399,0 -1.71979,0.8158 -0.8158,0.8158 -0.8158,1.74184 v 6.65868 q 0,0.33073 -0.33073,0.33073 h -2.33715 q -0.33073,0 -0.33073,-0.33073 v -16.27187 q 0,-0.33073 0.33073,-0.33073 h 2.33715 q 0.33073,0 0.33073,0.33073 z" />
        <path
           inkscape:connector-curvature="0"
           id="path937"
           style="font-style:normal;font-variant:normal;font-weight:normal;font-stretch:normal;font-size:22.57777786px;line-height:112.75;font-family:'07YasashisaGothicBold';-inkscape-font-specification:'07YasashisaGothicBold';letter-spacing:0px;word-spacing:0px;fill:#ffffff;fill-opacity:1;stroke:none;stroke-width:0;stroke-miterlimit:4;stroke-dasharray:none;stroke-opacity:1"
           d="m 329.89878,142.6706 q 0,-2.93247 1.4552,-4.54201 1.45521,-1.56546 4.14514,-1.56546 1.45521,0 3.2191,0.35278 0.26458,0.0441 0.26458,0.30868 v 1.6316 q 0,0.19844 -0.15434,0.30868 -0.13229,0.0882 -0.30868,0.0441 -1.34496,-0.33073 -2.64583,-0.33073 -1.41111,0 -2.11667,0.90399 -0.70555,0.904 -0.70555,2.88837 0,2.02847 0.74965,2.91042 0.74965,0.88194 2.29306,0.88194 1.21267,0 2.53559,-0.39687 0.19843,-0.0661 0.35277,0.0441 0.17639,0.11025 0.17639,0.33073 v 1.60955 q 0,0.26458 -0.26458,0.33073 -1.5875,0.37483 -3.175,0.37483 -2.80017,0 -4.32153,-1.54341 -1.4993,-1.52135 -1.4993,-4.54201 z" />
        <path
           inkscape:connector-curvature="0"
           id="path939"
           style="font-style:normal;font-variant:normal;font-weight:normal;font-stretch:normal;font-size:22.57777786px;line-height:112.75;font-family:'07YasashisaGothicBold';-inkscape-font-specification:'07YasashisaGothicBold';letter-spacing:0px;word-spacing:0px;fill:#ffffff;fill-opacity:1;stroke:none;stroke-width:0;stroke-miterlimit:4;stroke-dasharray:none;stroke-opacity:1"
           d="m 342.59878,145.0298 q 0,-0.33073 0.33073,-0.33073 h 2.95451 q 0.33073,0 0.33073,0.33073 v 3.175 q 0,0.33073 -0.33073,0.33073 h -2.95451 q -0.33073,0 -0.33073,-0.33073 z" />
        <path
           inkscape:connector-curvature="0"
           id="path941"
           style="font-style:normal;font-variant:normal;font-weight:normal;font-stretch:normal;font-size:22.57777786px;line-height:112.75;font-family:'07YasashisaGothicBold';-inkscape-font-specification:'07YasashisaGothicBold';letter-spacing:0px;word-spacing:0px;fill:#ffffff;fill-opacity:1;stroke:none;stroke-width:0;stroke-miterlimit:4;stroke-dasharray:none;stroke-opacity:1"
           d="m 352.07967,142.45011 q 0,1.89618 0.68351,2.77813 0.66146,0.92604 1.80799,0.92604 0.99219,0 1.76389,-0.70555 0.70555,-0.72761 0.70555,-1.69775 v -2.44739 q 0,-1.03629 -0.70555,-1.76389 -0.7717,-0.70556 -1.76389,-0.70556 -2.4915,0 -2.4915,3.61597 z m 7.93751,5.18143 q 0,6.10746 -6.10747,6.10746 -1.67569,0 -3.26319,-0.39687 -0.26459,-0.0662 -0.26459,-0.30868 v -1.71979 q 0,-0.22049 0.15434,-0.33073 0.17639,-0.11025 0.39688,-0.0221 1.36701,0.46302 2.91041,0.46302 1.65365,0 2.4474,-0.8599 0.74965,-0.85989 0.74965,-2.86632 v -0.7276 h -0.0441 q -1.34497,1.45521 -3.37344,1.45521 -1.98438,0 -3.2632,-1.60955 -1.25677,-1.60955 -1.25677,-4.36563 0,-2.80017 1.21268,-4.34357 1.21267,-1.54341 3.30729,-1.54341 1.05833,0 1.89618,0.39688 0.7717,0.35278 1.5875,1.30087 h 0.0661 l 0.0441,-1.12448 q 0,-0.33073 0.33073,-0.33073 h 2.11667 q 0.35278,0 0.35278,0.33073 z" />
        <path
           inkscape:connector-curvature="0"
           id="path943"
           style="font-style:normal;font-variant:normal;font-weight:normal;font-stretch:normal;font-size:22.57777786px;line-height:112.75;font-family:'07YasashisaGothicBold';-inkscape-font-specification:'07YasashisaGothicBold';letter-spacing:0px;word-spacing:0px;fill:#ffffff;fill-opacity:1;stroke:none;stroke-width:0;stroke-miterlimit:4;stroke-dasharray:none;stroke-opacity:1"
           d="m 363.80954,131.93293 q 0,-0.33073 0.35278,-0.33073 h 2.46945 q 0.35277,0 0.35277,0.33073 v 2.05052 q 0,0.33073 -0.35277,0.33073 h -2.46945 q -0.35278,0 -0.35278,-0.33073 z m 0,5.20347 q 0,-0.33073 0.35278,-0.33073 h 2.46945 q 0.35277,0 0.35277,0.33073 v 11.0684 q 0,0.33073 -0.35277,0.33073 h -2.46945 q -0.35278,0 -0.35278,-0.33073 z" />
        <path
           inkscape:connector-curvature="0"
           id="path945"
           style="font-style:normal;font-variant:normal;font-weight:normal;font-stretch:normal;font-size:22.57777786px;line-height:112.75;font-family:'07YasashisaGothicBold';-inkscape-font-specification:'07YasashisaGothicBold';letter-spacing:0px;word-spacing:0px;fill:#ffffff;fill-opacity:1;stroke:none;stroke-width:0;stroke-miterlimit:4;stroke-dasharray:none;stroke-opacity:1"
           d="m 379.13332,137.24664 q 0.33073,0 0.33073,0.33073 v 1.52136 q 0,0.33072 -0.33073,0.33072 h -3.54982 v 4.74046 q 0,1.4552 0.30868,1.89618 0.28663,0.44097 1.30087,0.44097 0.74965,0 1.47725,-0.17639 0.19844,-0.0441 0.35278,0.0661 0.15434,0.0882 0.15434,0.30868 v 1.52135 q 0,0.26458 -0.28663,0.30868 -1.05833,0.22049 -2.3592,0.22049 -2.20486,0 -3.06476,-0.94809 -0.88194,-0.904 -0.88194,-3.32934 v -5.04914 h -2.05053 q -0.33072,0 -0.33072,-0.33072 v -1.52136 q 0,-0.33073 0.33072,-0.33073 h 2.05053 v -3.9467 q 0,-0.35278 0.33072,-0.35278 h 2.31511 q 0.35278,0 0.35278,0.35278 v 3.9467 z" />
        <path
           inkscape:connector-curvature="0"
           id="path947"
           style="font-style:normal;font-variant:normal;font-weight:normal;font-stretch:normal;font-size:22.57777786px;line-height:112.75;font-family:'07YasashisaGothicBold';-inkscape-font-specification:'07YasashisaGothicBold';letter-spacing:0px;word-spacing:0px;fill:#ffffff;fill-opacity:1;stroke:none;stroke-width:0;stroke-miterlimit:4;stroke-dasharray:none;stroke-opacity:1"
           d="m 385.70381,138.15063 h 0.0441 q 1.5875,-1.5875 3.50572,-1.5875 2.07257,0 2.97657,1.19063 0.92604,1.19062 0.92604,4.01285 v 6.43819 q 0,0.33073 -0.33073,0.33073 h -2.27101 q -0.33073,0 -0.33073,-0.33073 v -5.99722 q 0,-1.94028 -0.41892,-2.57969 -0.41892,-0.63941 -1.56545,-0.63941 -0.90399,0 -1.71979,0.8158 -0.8158,0.8158 -0.8158,1.74184 v 6.65868 q 0,0.33073 -0.33073,0.33073 h -2.33715 q -0.33073,0 -0.33073,-0.33073 v -16.27187 q 0,-0.33073 0.33073,-0.33073 h 2.33715 q 0.33073,0 0.33073,0.33073 z" />
        <path
           inkscape:connector-curvature="0"
           id="path949"
           style="font-style:normal;font-variant:normal;font-weight:normal;font-stretch:normal;font-size:22.57777786px;line-height:112.75;font-family:'07YasashisaGothicBold';-inkscape-font-specification:'07YasashisaGothicBold';letter-spacing:0px;word-spacing:0px;fill:#ffffff;fill-opacity:1;stroke:none;stroke-width:0;stroke-miterlimit:4;stroke-dasharray:none;stroke-opacity:1"
           d="m 398.64634,136.80567 q 0.35278,0 0.35278,0.33073 v 6.50434 q 0,1.5875 0.41892,2.18281 0.44097,0.61736 1.45521,0.61736 0.90399,0 1.71979,-0.79375 0.79375,-0.79375 0.79375,-1.69774 v -6.81302 q 0,-0.33073 0.35278,-0.33073 h 2.3151 q 0.35278,0 0.35278,0.33073 v 11.0684 q 0,0.33073 -0.35278,0.33073 h -2.16076 q -0.33073,0 -0.33073,-0.33073 l -0.0661,-1.14653 h -0.0441 q -1.52136,1.69775 -3.59393,1.69775 -2.00642,0 -2.91042,-1.10243 -0.88194,-1.05834 -0.88194,-3.70417 v -6.81302 q 0,-0.33073 0.33073,-0.33073 z" />
        <path
           inkscape:connector-curvature="0"
           id="path951"
           style="font-style:normal;font-variant:normal;font-weight:normal;font-stretch:normal;font-size:22.57777786px;line-height:112.75;font-family:'07YasashisaGothicBold';-inkscape-font-specification:'07YasashisaGothicBold';letter-spacing:0px;word-spacing:0px;fill:#ffffff;fill-opacity:1;stroke:none;stroke-width:0;stroke-miterlimit:4;stroke-dasharray:none;stroke-opacity:1"
           d="m 417.80659,142.6706 q 0,-3.83646 -2.57969,-3.83646 -1.05833,0 -1.83003,0.68351 -0.77171,0.70555 -0.77171,1.60955 v 3.06475 q 0,0.904 0.77171,1.60955 0.7717,0.70556 1.83003,0.70556 1.19063,0 1.89618,-0.97014 0.68351,-0.92604 0.68351,-2.86632 z m -5.15938,-4.67431 h 0.0441 q 1.49931,-1.43316 3.43958,-1.43316 2.13872,0 3.37344,1.5875 1.27882,1.60955 1.27882,4.51997 0,2.84427 -1.32292,4.43177 -1.30086,1.65365 -3.32934,1.65365 -2.09461,0 -3.59392,-1.69775 h -0.0441 l -0.0441,1.14653 q 0,0.33073 -0.35278,0.33073 h -2.11667 q -0.33073,0 -0.33073,-0.33073 v -16.27187 q 0,-0.33073 0.33073,-0.33073 h 2.33715 q 0.33073,0 0.33073,0.33073 z" />
        <path
           inkscape:connector-curvature="0"
           id="path953"
           style="font-style:normal;font-variant:normal;font-weight:normal;font-stretch:normal;font-size:22.57777786px;line-height:112.75;font-family:'07YasashisaGothicBold';-inkscape-font-specification:'07YasashisaGothicBold';letter-spacing:0px;word-spacing:0px;fill:#ffffff;fill-opacity:1;stroke:none;stroke-width:0;stroke-miterlimit:4;stroke-dasharray:none;stroke-opacity:1"
           d="m 423.69356,145.0298 q 0,-0.33073 0.33073,-0.33073 h 2.95452 q 0.33073,0 0.33073,0.33073 v 3.175 q 0,0.33073 -0.33073,0.33073 h -2.95452 q -0.33073,0 -0.33073,-0.33073 z" />
        <path
           inkscape:connector-curvature="0"
           id="path955"
           style="font-style:normal;font-variant:normal;font-weight:normal;font-stretch:normal;font-size:22.57777786px;line-height:112.75;font-family:'07YasashisaGothicBold';-inkscape-font-specification:'07YasashisaGothicBold';letter-spacing:0px;word-spacing:0px;fill:#ffffff;fill-opacity:1;stroke:none;stroke-width:0;stroke-miterlimit:4;stroke-dasharray:none;stroke-opacity:1"
           d="m 431.54288,131.93293 q 0,-0.33073 0.35278,-0.33073 h 2.46944 q 0.35278,0 0.35278,0.33073 v 2.05052 q 0,0.33073 -0.35278,0.33073 h -2.46944 q -0.35278,0 -0.35278,-0.33073 z m 0,5.20347 q 0,-0.33073 0.35278,-0.33073 h 2.46944 q 0.35278,0 0.35278,0.33073 v 11.0684 q 0,0.33073 -0.35278,0.33073 h -2.46944 q -0.35278,0 -0.35278,-0.33073 z" />
        <path
           inkscape:connector-curvature="0"
           id="path957"
           style="font-style:normal;font-variant:normal;font-weight:normal;font-stretch:normal;font-size:22.57777786px;line-height:112.75;font-family:'07YasashisaGothicBold';-inkscape-font-specification:'07YasashisaGothicBold';letter-spacing:0px;word-spacing:0px;fill:#ffffff;fill-opacity:1;stroke:none;stroke-width:0;stroke-miterlimit:4;stroke-dasharray:none;stroke-opacity:1"
           d="m 439.19374,138.17268 q 1.54341,-1.60955 4.23334,-1.60955 2.68993,0 4.21128,1.60955 1.52136,1.5875 1.52136,4.49792 0,2.91042 -1.52136,4.49792 -1.52135,1.5875 -4.21128,1.5875 -2.71198,0 -4.23334,-1.56545 -1.47725,-1.5875 -1.47725,-4.51997 0,-2.88837 1.47725,-4.49792 z m 4.23334,8.40052 q 2.68993,0 2.68993,-3.9026 0,-3.9026 -2.68993,-3.9026 -1.36702,0 -2.02847,0.92604 -0.63941,0.92604 -0.63941,2.97656 0,2.05052 0.63941,2.97656 0.66145,0.92604 2.02847,0.92604 z" />
      </g>
      <path
         d="m 45.738333,62.99912 h 42.156944 v 14.72847 l -9.525,15.61042 h -8.73125 L 80.663332,75.25815 V 69.08454 H 55.616111 v 15.08125 h 6.967361 V 71.2012 h 6.702777 v 19.05 H 35.155 v -19.05 h 6.614583 v 12.96459 h 7.14375 V 69.08454 H 38.594583 V 27.10398 h 7.849306 l 4.145138,-6.79097 6.438195,3.43958 -2.028472,3.35139 H 75.283471 V 50.82829 H 45.738333 v 2.99861 h 41.89236 v 6.08541 h -41.89236 z m 0,-18.25625 H 68.139722 V 41.65606 H 45.738333 Z m 22.401389,-8.64306 v -3.0868 H 45.738333 v 3.0868 z"
         style="font-style:normal;font-variant:normal;font-weight:normal;font-stretch:normal;font-size:88.19444275px;line-height:151.81791687px;font-family:Kaiso-Next-B;-inkscape-font-specification:Kaiso-Next-B;letter-spacing:0px;word-spacing:0px;fill:#ffffff;fill-opacity:1;stroke:none;stroke-width:0.26458332"
         id="path902"
         inkscape:connector-curvature="0" />
      <path
         d="m 197.5855,86.329667 -3.79236,7.14375 L 169.98064,66.221334 145.81536,93.738 142.023,86.770639 166.01189,59.342167 V 43.11439 h -22.66597 v -7.320139 h 22.66597 V 22.035918 h 7.49653 v 13.758333 h 22.75417 v 7.320139 h -22.75417 v 15.698611 z"
         style="font-style:normal;font-variant:normal;font-weight:normal;font-stretch:normal;font-size:medium;line-height:151.81791687px;font-family:Kaiso-Next-B;-inkscape-font-specification:Kaiso-Next-B;letter-spacing:0px;word-spacing:0px;fill:#ffffff;fill-opacity:1;stroke:none;stroke-width:0.26458332"
         id="path905"
         inkscape:connector-curvature="0" />
      <path
         d="m 279.60308,90.212388 h 20.39761 v 2.938639 H 251.081 v -2.938639 h 25.92916 V 31.61247 h -22.6448 v -2.852209 h 22.6448 v -6.655152 l 11.75456,5.272264 V 81.22361 c -6.82801,1.469319 -8.98878,3.975805 -9.16164,8.988778 z"
         style="font-style:normal;font-variant:normal;font-weight:normal;font-stretch:normal;font-size:86.43055725px;line-height:151.81791687px;font-family:'オリエンタル';-inkscape-font-specification:'オリエンタル';letter-spacing:0px;word-spacing:0px;fill:#ffffff;fill-opacity:1;stroke:none;stroke-width:0.26458332"
         id="path908"
         inkscape:connector-curvature="0" />
      <path
         d="M 398.0495,60.321999 H 369.02802 V 51.903908 H 398.0495 Z"
         style="font-style:normal;font-variant:normal;font-weight:normal;font-stretch:normal;font-size:95.25px;line-height:151.81791687px;font-family:'オリエンタル';-inkscape-font-specification:'オリエンタル';letter-spacing:0px;word-spacing:0px;fill:#ffffff;fill-opacity:1;stroke:none;stroke-width:0.26458332"
         id="path911"
         inkscape:connector-curvature="0" />
      <path
         d="M 508.96567,53.909526 469.765,93.025525 467.30967,90.570192 497.451,60.513526 V 31.21886 h -30.226 v -2.878666 h 30.226 v -5.418667 l 11.51467,5.164667 z m 3.302,36.406666 0.0847,2.709333 c -4.318,0.423333 -7.70466,-0.423333 -10.07533,-3.386666 -3.048,-3.81 -6.01133,-5.418667 -9.73667,-5.164667 v -7.027333 c 5.75734,-0.423333 9.56734,2.286 11.76867,7.027333 2.62467,5.418666 4.48733,6.265333 7.95867,5.842 z"
         style="font-style:normal;font-variant:normal;font-weight:normal;font-stretch:normal;font-size:84.66666412px;line-height:151.81791687px;font-family:'オリエンタル';-inkscape-font-specification:'オリエンタル';letter-spacing:0px;word-spacing:0px;fill:#ffffff;fill-opacity:1;stroke:none;stroke-width:0.26458332"
         id="path914"
         inkscape:connector-curvature="0" />
    </g>
  </g>
</svg>
